<svg xmlns="http://www.w3.org/2000/svg" width="512pt" height="512pt" viewBox="-24 0 512 512"><path fill="#ffb98a" d="M408.35 456.27h-135c-8.38 0-20.2-4.66-26.36-10.38l-59.72-55.6c-2.07-1.92-3.23-4.6-3.23-7.43v-2.5c0-5.62 4.54-10.17 10.15-10.17h17.85c2.7 0 5.27 1.07 7.18 2.98l42.9 42.9c2.84 2.84 6.62 4.4 10.65 4.4 4.02 0 7.8-1.56 10.63-4.4l16.14-16.12c2.83-2.82 4.4-6.6 4.4-10.63 0-4.03-1.58-7.8-4.4-10.63l-64.63-64.63c-5.85-5.86-17.37-10.63-25.66-10.63H154.6v138.3L209.55 494c6.08 5.8 17.86 10.5 26.26 10.5h172.55c8.4 0 15.23-6.83 15.23-15.23V471.5c0-8.4-6.83-15.23-15.23-15.23zm0 0"/><path fill="#ffd5b3" d="M382 432.92H363.2v23.35h34v-8.16c0-8.37-6.8-15.18-15.17-15.18zm0 0"/><path fill="#e6e9ed" d="M399.26 303.27c-5.55-57.43-54.28-102.34-113.6-102.34s-108.02 44.9-113.57 102.34zm0 0"/><path fill="#fb8276" d="M247 445.9c6.14 5.7 17.97 10.37 26.36 10.37h89.82v-24.7h-131.6zm0 0"/><path fill="#ef5050" d="M433.45 305.77c-.9-1.55-2.56-2.5-4.35-2.5H212.34v.37c7.87.96 17.4 5.27 22.57 10.43l64.64 64.63c2.82 2.82 4.38 6.6 4.38 10.63 0 4.03-1.56 7.8-4.38 10.63L283.4 416.1c-2.82 2.82-6.6 4.38-10.63 4.38s-7.8-1.56-10.63-4.4l-42.92-42.9c-1.9-1.9-4.48-2.98-7.17-2.98H194.2c-5.6 0-10.15 4.55-10.15 10.16v2.5c0 2.83 1.16 5.52 3.23 7.44l44.3 41.26h131.6l70.27-120.8c.9-1.55.9-3.46 0-5zm0 0"/><path fill="#dd7814" d="M83.4 293.02H12.73c-2.88 0-5.23 2.35-5.23 5.23V450.1c0 2.88 2.35 5.24 5.23 5.24H83.4zm0 0"/><path fill="#f7931e" d="M88.63 282.34c-2.88 0-5.23 2.36-5.23 5.23v173.2c0 2.9 2.35 5.24 5.23 5.24h60.73c2.88 0 5.23-2.34 5.23-5.22v-173.2c0-2.88-2.36-5.24-5.24-5.24H88.63zm0 0"/><path d="M287.34 83.26h20.73c12.84 0 23.28 10.33 23.28 23.03 0 12.7-10.44 23.03-23.28 23.03h-49.8c-4.13 0-7.5 3.36-7.5 7.5 0 4.14 3.37 7.5 7.5 7.5h49.8c21.1 0 38.28-17.06 38.28-38.04s-17.17-38.04-38.28-38.04h-20.73c-4.14 0-7.5 3.36-7.5 7.5 0 4.14 3.36 7.5 7.5 7.5zm0 0M235.93 83.26h15.2c4.14 0 7.5-3.36 7.5-7.5 0-4.14-3.36-7.5-7.5-7.5h-15.2c-14.84 0-26.9-11.95-26.9-26.63S221.1 15 235.93 15h30.35c4.14 0 7.5-3.36 7.5-7.5s-3.36-7.5-7.5-7.5h-30.35c-23.1 0-41.9 18.68-41.9 41.63s18.8 41.63 41.9 41.63zm0 0M434.8 95.46h-15.45c-4.14 0-7.5 3.35-7.5 7.5 0 4.14 3.36 7.5 7.5 7.5h15.45c8.2 0 14.88 6.6 14.88 14.7S443 139.9 434.8 139.9h-44.43c-14.48 0-26.26 11.7-26.26 26.1v12.1c0 4.14 3.37 7.5 7.5 7.5 4.15 0 7.5-3.36 7.5-7.5v-12.1c0-6.1 5.06-11.1 11.27-11.1h44.43c16.48 0 29.88-13.33 29.88-29.7 0-16.4-13.4-29.72-29.88-29.72zm0 0M429.1 295.77h-23.24c-8.97-57.87-59.44-102.34-120.2-102.34-60.73 0-111.2 44.47-120.17 102.34h-3.4v-8.2c0-7.02-5.72-12.73-12.74-12.73H88.63c-6.32 0-11.56 4.63-12.55 10.68H12.73C5.7 285.52 0 291.22 0 298.25V450.1c0 7.02 5.7 12.74 12.73 12.74h63.35c1 6.04 6.23 10.67 12.55 10.67h60.73c7.02 0 12.73-5.7 12.73-12.72v-1.56l42.28 40.22C211.9 506.6 225.4 512 235.8 512h172.55c12.53 0 22.72-10.2 22.72-22.73V471.5c0-12.54-10.2-22.73-22.72-22.73h-3.66v-.66c0-12.5-10.2-22.68-22.7-22.68h-6.57l64.5-110.9c2.25-3.87 2.25-8.66 0-12.54-2.24-3.83-6.4-6.2-10.83-6.2zM15 300.52h60.9v147.32H15zm393.35 163.25c4.26 0 7.72 3.46 7.72 7.73v17.77c0 4.26-3.46 7.73-7.72 7.73H235.8c-6.5 0-16.36-3.94-21.08-8.43l-52.63-50.05V359c0-4.14-3.36-7.5-7.5-7.5s-7.5 3.36-7.5 7.5v99.5H90.9V289.85h56.2V323c0 4.14 3.35 7.5 7.5 7.5s7.5-3.36 7.5-7.5v-12.06h47.14c6.35 0 15.87 3.94 20.37 8.44L294.24 384c1.4 1.4 2.2 3.3 2.2 5.33 0 2.03-.8 3.92-2.2 5.33L278.1 410.8c-1.4 1.4-3.3 2.18-5.33 2.18-2.05 0-3.9-.76-5.33-2.2l-42.9-42.9c-3.3-3.3-7.85-5.18-12.5-5.18H194.2c-9.74 0-17.66 7.92-17.66 17.66v2.5c0 4.9 2.05 9.6 5.63 12.94l59.7 55.58c7.6 7.06 21.13 12.4 31.5 12.4zm-52.67-24.7v9.7h-82.32c-6.54 0-16.47-3.9-21.26-8.37l-1.44-1.34zm-121.14-15L192.4 384.8c-.54-.5-.85-1.2-.85-1.95v-2.5c0-1.48 1.18-2.67 2.65-2.67h17.85c.7 0 1.38.28 1.87.78l42.92 42.9c1 1 2.08 1.9 3.22 2.68zM382 440.4c4.24 0 7.7 3.45 7.7 7.7v.65h-19.02v-8.35zm-23.13-16.36H285.5c1.13-.78 2.2-1.67 3.2-2.67l16.14-16.13c4.25-4.25 6.58-9.9 6.58-15.94 0-6.03-2.33-11.7-6.58-15.94l-62.63-62.63h81.14c4.14 0 7.5-3.36 7.5-7.5 0-4.14-3.36-7.5-7.5-7.5H180.68c8.82-49.56 52.55-87.34 105-87.34 52.44 0 96.16 37.78 104.98 87.34h-30.32c-4.14 0-7.5 3.36-7.5 7.5 0 4.14 3.36 7.5 7.5 7.5h64.42zm0 0M117.83 413.68c-4.14 0-7.5 3.37-7.5 7.5v12.87c0 4.15 3.36 7.5 7.5 7.5s7.5-3.35 7.5-7.5V421.2c0-4.15-3.35-7.52-7.5-7.52zm0 0M291.52 221.22h-7.03c-4.15 0-7.5 3.36-7.5 7.5 0 4.14 3.35 7.5 7.5 7.5h7.02c4.14 0 7.5-3.36 7.5-7.5 0-4.14-3.36-7.5-7.5-7.5zm0 0M254.86 242.16h-7.03c-4.14 0-7.5 3.36-7.5 7.5 0 4.14 3.36 7.5 7.5 7.5h7.03c4.14 0 7.5-3.36 7.5-7.5 0-4.14-3.36-7.5-7.5-7.5zm0 0M328.18 242.16h-7.02c-4.15 0-7.5 3.36-7.5 7.5 0 4.14 3.35 7.5 7.5 7.5h7.02c4.15 0 7.5-3.36 7.5-7.5 0-4.14-3.36-7.5-7.5-7.5zm0 0M225.23 268.08h-7.03c-4.15 0-7.5 3.36-7.5 7.5s3.35 7.5 7.5 7.5h7.03c4.14 0 7.5-3.36 7.5-7.5s-3.36-7.5-7.5-7.5zm0 0M291.52 268.08h-7.03c-4.15 0-7.5 3.36-7.5 7.5s3.35 7.5 7.5 7.5h7.02c4.14 0 7.5-3.36 7.5-7.5s-3.36-7.5-7.5-7.5zm0 0M365.32 275.58c0-4.14-3.36-7.5-7.5-7.5h-7.03c-4.16 0-7.5 3.36-7.5 7.5s3.34 7.5 7.5 7.5h7.02c4.14 0 7.5-3.35 7.5-7.5zm0 0"/></svg>